<?xml version="1.0" encoding="UTF-8" standalone="no"?>
<!-- Created with Inkscape (http://www.inkscape.org/) -->

<svg
   xmlns:dc="http://purl.org/dc/elements/1.1/"
   xmlns:cc="http://creativecommons.org/ns#"
   xmlns:rdf="http://www.w3.org/1999/02/22-rdf-syntax-ns#"
   xmlns:svg="http://www.w3.org/2000/svg"
   xmlns="http://www.w3.org/2000/svg"
   xmlns:sodipodi="http://sodipodi.sourceforge.net/DTD/sodipodi-0.dtd"
   xmlns:inkscape="http://www.inkscape.org/namespaces/inkscape"
   width="210mm"
   height="297mm"
   viewBox="0 0 744.09448819 1052.3622047"
   id="svg2"
   version="1.1"
   inkscape:version="0.91 r13725"
   sodipodi:docname="foot.svg">
  <defs
     id="defs4">
    <filter
       inkscape:collect="always"
       style="color-interpolation-filters:sRGB"
       id="filter4174"
       x="-0.045916069"
       width="1.0918321"
       y="-0.050282086"
       height="1.1005642">
      <feGaussianBlur
         inkscape:collect="always"
         stdDeviation="13.282851"
         id="feGaussianBlur4176" />
    </filter>
    <filter
       inkscape:collect="always"
       style="color-interpolation-filters:sRGB"
       id="filter4213"
       x="-0.039742775"
       width="1.0794855"
       y="-0.060588214"
       height="1.1211764">
      <feGaussianBlur
         inkscape:collect="always"
         stdDeviation="29.428574"
         id="feGaussianBlur4215" />
    </filter>
  </defs>
  <sodipodi:namedview
     id="base"
     pagecolor="#ffffff"
     bordercolor="#666666"
     borderopacity="1.0"
     inkscape:pageopacity="0.0"
     inkscape:pageshadow="2"
     inkscape:zoom="0.35"
     inkscape:cx="-112.14286"
     inkscape:cy="520"
     inkscape:document-units="px"
     inkscape:current-layer="layer1"
     showgrid="false"
     showguides="true"
     inkscape:guide-bbox="true"
     inkscape:snap-bbox="true"
     inkscape:snap-bbox-midpoints="true"
     inkscape:window-width="1920"
     inkscape:window-height="1017"
     inkscape:window-x="-8"
     inkscape:window-y="-8"
     inkscape:window-maximized="1" />
  <metadata
     id="metadata7">
    <rdf:RDF>
      <cc:Work
         rdf:about="">
        <dc:format>image/svg+xml</dc:format>
        <dc:type
           rdf:resource="http://purl.org/dc/dcmitype/StillImage" />
        <dc:title></dc:title>
      </cc:Work>
    </rdf:RDF>
  </metadata>
  <g
     inkscape:label="Vrstva 1"
     inkscape:groupmode="layer"
     id="layer1">
    <path
       sodipodi:nodetypes="sssssssssssssssssssssaccaccas"
       inkscape:connector-curvature="0"
       id="path4160"
       d="m 257.1434,162.3616 c -45.76095,-1.5e-4 -82.85757,37.09647 -82.85742,82.85742 -1.5e-4,45.76096 37.09647,82.85758 82.85742,82.85743 45.76096,1.6e-4 82.85758,-37.09646 82.85743,-82.85743 1.5e-4,-45.76096 -37.09647,-82.85758 -82.85743,-82.85742 z m 185.14258,0 c -45.76095,-1.5e-4 -82.85757,37.09647 -82.85742,82.85742 -1.5e-4,45.76096 37.09647,82.85758 82.85742,82.85743 45.76095,1.5e-4 82.85757,-37.09647 82.85742,-82.85743 1.5e-4,-45.76095 -37.09647,-82.85757 -82.85742,-82.85742 z M 89.143403,319.50419 c -45.76096,-1.5e-4 -82.8575601,37.09647 -82.8573601,82.85742 -2e-4,45.76095 37.0964001,82.85757 82.8573601,82.85742 45.760957,1.6e-4 82.857577,-37.09646 82.857427,-82.85742 1.5e-4,-45.76096 -37.09647,-82.85758 -82.857427,-82.85742 z m 528.570317,2.57226 c -45.76096,-1.6e-4 -82.85759,37.09647 -82.85743,82.85743 -1.5e-4,45.76096 37.09647,82.85758 82.85743,82.85742 45.76095,1.5e-4 82.85757,-37.09647 82.85742,-82.85742 1.6e-4,-45.76096 -37.09646,-82.85758 -82.85742,-82.85743 z M 350.00083,375.21903 C 265.57994,375.21888 255.82948,478.14247 207.1434,528.07645 162.85586,573.49916 73.919943,577.0085 71.428543,661.50419 c -1e-4,84.42088 68.436557,132.85757 152.857437,132.85742 55.65264,-0.0138 74.8414,-79.18796 123.79102,-78.99805 49.58743,0.19239 68.34543,80.94859 124.77929,80.99805 84.42089,1.5e-4 152.85758,-48.43653 152.85743,-132.85742 C 638.54933,561.53437 536.59196,573.75223 492.85629,528.07645 444.62402,477.7046 434.42095,375.21996 350.00083,375.21903 Z"
       style="opacity:0.6;fill:#000000;fill-opacity:1;fill-rule:nonzero;stroke:none;stroke-width:3.5;stroke-linecap:round;stroke-linejoin:round;stroke-miterlimit:4;stroke-dasharray:none;stroke-dashoffset:0;stroke-opacity:1;filter:url(#filter4174)" />
    <path
       style="opacity:1;fill:#f9f9f9;fill-opacity:1;fill-rule:nonzero;stroke:none;stroke-width:3.5;stroke-linecap:round;stroke-linejoin:round;stroke-miterlimit:4;stroke-dasharray:none;stroke-dashoffset:0;stroke-opacity:1"
       d="m 257.1434,162.3616 c -45.76095,-1.5e-4 -82.85757,37.09647 -82.85742,82.85742 -1.5e-4,45.76096 37.09647,82.85758 82.85742,82.85743 45.76096,1.6e-4 82.85758,-37.09646 82.85743,-82.85743 1.5e-4,-45.76096 -37.09647,-82.85758 -82.85743,-82.85742 z m 185.14258,0 c -45.76095,-1.5e-4 -82.85757,37.09647 -82.85742,82.85742 -1.5e-4,45.76096 37.09647,82.85758 82.85742,82.85743 45.76095,1.5e-4 82.85757,-37.09647 82.85742,-82.85743 1.5e-4,-45.76095 -37.09647,-82.85757 -82.85742,-82.85742 z M 89.143403,319.50419 c -45.76096,-1.5e-4 -82.8575601,37.09647 -82.8573601,82.85742 -2e-4,45.76095 37.0964001,82.85757 82.8573601,82.85742 45.760957,1.6e-4 82.857577,-37.09646 82.857427,-82.85742 1.5e-4,-45.76096 -37.09647,-82.85758 -82.857427,-82.85742 z m 528.570317,2.57226 c -45.76096,-1.6e-4 -82.85759,37.09647 -82.85743,82.85743 -1.5e-4,45.76096 37.09647,82.85758 82.85743,82.85742 45.76095,1.5e-4 82.85757,-37.09647 82.85742,-82.85742 1.6e-4,-45.76096 -37.09646,-82.85758 -82.85742,-82.85743 z M 350.00083,375.21903 C 265.57994,375.21888 255.82948,478.14247 207.1434,528.07645 162.85586,573.49916 73.919943,577.0085 71.428543,661.50419 c -1e-4,84.42088 68.436557,132.85757 152.857437,132.85742 55.65264,-0.0138 74.8414,-79.18796 123.79102,-78.99805 49.58743,0.19239 68.34543,80.94859 124.77929,80.99805 84.42089,1.5e-4 152.85758,-48.43653 152.85743,-132.85742 C 638.54933,561.53437 536.59196,573.75223 492.85629,528.07645 444.62402,477.7046 434.42095,375.21996 350.00083,375.21903 Z"
       id="path4136"
       inkscape:connector-curvature="0"
       sodipodi:nodetypes="sssssssssssssssssssssaccaccas" />
    <path
       style="opacity:0.75;fill:#000000;fill-opacity:1;fill-rule:nonzero;stroke:none;stroke-width:3.5;stroke-linecap:round;stroke-linejoin:round;stroke-miterlimit:4;stroke-dasharray:none;stroke-dashoffset:0;stroke-opacity:1;filter:url(#filter4213)"
       d="M 1151.502 142.32031 C 1150.1181 143.77007 1148.7689 145.25182 1147.4922 146.79883 C 1148.7686 145.25218 1150.1185 143.76976 1151.502 142.32031 z M 1336.6445 142.32031 C 1335.2607 143.77007 1333.9115 145.25182 1332.6348 146.79883 C 1333.9112 145.25218 1335.261 143.76976 1336.6445 142.32031 z M 1136.7422 163.58203 C 1135.5786 165.99692 1134.5289 168.47751 1133.5996 171.01562 C 1134.5289 168.47751 1135.5786 165.99692 1136.7422 163.58203 z M 1321.8848 163.58203 C 1320.7212 165.99692 1319.6715 168.47751 1318.7422 171.01562 C 1319.6715 168.47751 1320.7212 165.99692 1321.8848 163.58203 z M 1131.6016 177.24219 C 1131.3108 178.28691 1131.0395 179.33948 1130.7891 180.40039 C 1131.0394 179.33947 1131.3108 178.28692 1131.6016 177.24219 z M 1316.7441 177.24219 C 1316.4534 178.28691 1316.182 179.33948 1315.9316 180.40039 C 1316.182 179.33947 1316.4534 178.28692 1316.7441 177.24219 z M 1130.1816 183.19531 C 1129.8029 185.09221 1129.485 187.00994 1129.2383 188.95117 C 1129.485 187.0106 1129.8031 185.09158 1130.1816 183.19531 z M 1315.3242 183.19531 C 1315.1027 184.30479 1314.9033 185.42189 1314.7266 186.54688 C 1314.9032 185.42189 1315.1028 184.3048 1315.3242 183.19531 z M 1128.9844 191.20312 C 1128.8514 192.54016 1128.7484 193.88526 1128.6797 195.24023 C 1128.7483 193.88586 1128.8515 192.53957 1128.9844 191.20312 z M 1314.127 191.20312 C 1313.9939 192.54016 1313.8909 193.88526 1313.8223 195.24023 C 1313.8909 193.88586 1313.994 192.53957 1314.127 191.20312 z M 1128.6797 203.76953 C 1128.7513 205.18177 1128.8586 206.58385 1129 207.97656 C 1128.8586 206.58449 1128.7513 205.18111 1128.6797 203.76953 z M 1313.8223 203.76953 C 1313.8938 205.18177 1314.0011 206.58385 1314.1426 207.97656 C 1314.0012 206.58449 1313.8938 205.18111 1313.8223 203.76953 z M 1129.2383 210.05859 C 1129.5018 212.13204 1129.842 214.18044 1130.2559 216.20312 C 1129.8421 214.18107 1129.5018 212.13139 1129.2383 210.05859 z M 1314.6699 212.12305 C 1314.8795 213.4945 1315.1225 214.85467 1315.3984 216.20312 C 1315.1225 214.85467 1314.8795 213.4945 1314.6699 212.12305 z M 1130.6934 218.2168 C 1131.0018 219.5531 1131.3426 220.87679 1131.7148 222.1875 C 1131.3426 220.87679 1131.0018 219.5531 1130.6934 218.2168 z M 1315.8359 218.2168 C 1316.1444 219.5531 1316.4852 220.87679 1316.8574 222.1875 C 1316.4852 220.87679 1316.1444 219.5531 1315.8359 218.2168 z M 1133.5996 227.99414 C 1134.5287 230.53169 1135.5789 233.0114 1136.7422 235.42578 C 1135.5788 233.01144 1134.5288 230.53166 1133.5996 227.99414 z M 1318.7422 227.99414 C 1319.6713 230.53169 1320.7215 233.0114 1321.8848 235.42578 C 1320.7214 233.01144 1319.6714 230.53166 1318.7422 227.99414 z M 1138.5723 239 C 1139.8475 241.34759 1141.234 243.62648 1142.7227 245.83008 C 1141.234 243.62652 1139.8476 241.34755 1138.5723 239 z M 1323.7148 239 C 1324.9901 241.34759 1326.3766 243.62648 1327.8652 245.83008 C 1326.3765 243.62652 1324.9902 241.34755 1323.7148 239 z M 1147.4922 252.20898 C 1149.1808 254.25508 1150.9656 256.21947 1152.8398 258.09375 C 1150.9656 256.21947 1149.1808 254.25508 1147.4922 252.20898 z M 1152.8398 258.09375 C 1154.7141 259.96803 1156.6785 261.75282 1158.7246 263.44141 C 1156.6785 261.75282 1154.7141 259.96803 1152.8398 258.09375 z M 1158.7246 263.44141 C 1160.7707 265.12999 1162.8995 266.72193 1165.1035 268.21094 C 1162.8995 266.72193 1160.7707 265.12999 1158.7246 263.44141 z M 1165.1035 268.21094 C 1167.3075 269.69994 1169.5855 271.08578 1171.9336 272.36133 C 1169.586 271.08601 1167.3071 269.69963 1165.1035 268.21094 z M 1332.6348 252.20898 C 1334.3234 254.25508 1336.1081 256.21947 1337.9824 258.09375 C 1336.1081 256.21947 1334.3234 254.25508 1332.6348 252.20898 z M 1337.9824 258.09375 C 1339.8567 259.96803 1341.8211 261.75282 1343.8672 263.44141 C 1341.8211 261.75282 1339.8567 259.96803 1337.9824 258.09375 z M 1343.8672 263.44141 C 1345.9133 265.12999 1348.0421 266.72193 1350.2461 268.21094 C 1348.0421 266.72193 1345.9133 265.12999 1343.8672 263.44141 z M 1350.2461 268.21094 C 1352.4501 269.69994 1354.7281 271.08578 1357.0762 272.36133 C 1354.7286 271.08601 1352.4497 269.69963 1350.2461 268.21094 z M 1268.6133 259.43164 C 1267.1638 260.81512 1265.6814 262.165 1264.1348 263.44141 C 1265.6818 262.1647 1267.1635 260.81546 1268.6133 259.43164 z M 1264.1348 263.44141 C 1262.0887 265.12999 1259.9599 266.72193 1257.7559 268.21094 C 1259.9599 266.72193 1262.0887 265.12999 1264.1348 263.44141 z M 1257.7559 268.21094 C 1255.5518 269.69994 1253.2719 271.08578 1250.9238 272.36133 C 1253.2719 271.08578 1255.5518 269.69994 1257.7559 268.21094 z M 1453.7559 259.43164 C 1452.3064 260.81512 1450.824 262.165 1449.2773 263.44141 C 1450.8243 262.1647 1452.3061 260.81546 1453.7559 259.43164 z M 1449.2773 263.44141 C 1447.2312 265.12999 1445.1025 266.72193 1442.8984 268.21094 C 1445.1025 266.72193 1447.2312 265.12999 1449.2773 263.44141 z M 1442.8984 268.21094 C 1440.6944 269.69994 1438.4145 271.08578 1436.0664 272.36133 C 1438.4145 271.08578 1440.6944 269.69994 1442.8984 268.21094 z M 1175.5078 274.19141 C 1177.9227 275.35501 1180.4013 276.40466 1182.9395 277.33398 C 1180.4019 276.40482 1177.9222 275.35475 1175.5078 274.19141 z M 1247.3516 274.19141 C 1244.9367 275.35501 1242.4561 276.40466 1239.918 277.33398 C 1242.4561 276.40466 1244.9367 275.35501 1247.3516 274.19141 z M 1360.6504 274.19141 C 1363.0653 275.35501 1365.5439 276.40466 1368.082 277.33398 C 1365.5445 276.40482 1363.0647 275.35475 1360.6504 274.19141 z M 1432.4941 274.19141 C 1430.0793 275.35501 1427.5987 276.40466 1425.0605 277.33398 C 1427.5987 276.40466 1430.0793 275.35501 1432.4941 274.19141 z M 1188.7461 279.21875 C 1190.0568 279.591 1191.3805 279.93176 1192.7168 280.24023 C 1191.3805 279.93176 1190.0568 279.591 1188.7461 279.21875 z M 1192.7168 280.24023 C 1196.0576 281.01141 1199.4752 281.58001 1202.957 281.93359 C 1199.4752 281.58001 1196.0576 281.01141 1192.7168 280.24023 z M 1202.957 281.93359 C 1204.3497 282.07503 1205.7538 282.18232 1207.166 282.25391 C 1205.7538 282.18232 1204.3497 282.07503 1202.957 281.93359 z M 1207.166 282.25391 C 1208.5783 282.32549 1209.9997 282.36133 1211.4297 282.36133 C 1209.9997 282.36133 1208.5783 282.32549 1207.166 282.25391 z M 1211.4297 282.36133 C 1212.8597 282.36133 1214.2811 282.32549 1215.6934 282.25391 C 1214.2811 282.32549 1212.8597 282.36133 1211.4297 282.36133 z M 1215.6934 282.25391 C 1217.0483 282.18523 1218.3934 282.08223 1219.7305 281.94922 C 1218.394 282.08214 1217.0477 282.18526 1215.6934 282.25391 z M 1234.1133 279.21875 C 1232.931 279.55454 1231.7364 279.86057 1230.5332 280.14453 C 1231.7359 279.86067 1232.9315 279.55439 1234.1133 279.21875 z M 1373.8887 279.21875 C 1375.1994 279.591 1376.5231 279.93176 1377.8594 280.24023 C 1376.5231 279.93176 1375.1994 279.591 1373.8887 279.21875 z M 1377.8594 280.24023 C 1381.2001 281.01141 1384.6178 281.58001 1388.0996 281.93359 C 1384.6185 281.57999 1381.1995 281.01127 1377.8594 280.24023 z M 1419.2559 279.21875 C 1418.0735 279.55454 1416.879 279.86057 1415.6758 280.14453 C 1416.8785 279.86067 1418.074 279.55439 1419.2559 279.21875 z M 1229.7031 280.33594 C 1226.5702 281.04114 1223.3714 281.57099 1220.1152 281.91016 C 1223.3714 281.57091 1226.5702 281.04123 1229.7031 280.33594 z M 1414.8457 280.33594 C 1411.7128 281.04114 1408.5139 281.57099 1405.2578 281.91016 C 1408.514 281.57091 1411.7128 281.04124 1414.8457 280.33594 z M 1388.1016 281.93359 C 1389.4936 282.07493 1390.897 282.18236 1392.3086 282.25391 C 1390.8964 282.18232 1389.4943 282.07503 1388.1016 281.93359 z M 1392.3086 282.25391 C 1393.7208 282.32549 1395.1422 282.36133 1396.5723 282.36133 C 1395.1422 282.36133 1393.7208 282.32549 1392.3086 282.25391 z M 1396.5723 282.36133 C 1398.0023 282.36133 1399.4237 282.32549 1400.8359 282.25391 C 1399.4237 282.32549 1398.0023 282.36133 1396.5723 282.36133 z M 1400.8359 282.25391 C 1402.1909 282.18523 1403.536 282.08223 1404.873 281.94922 C 1403.5366 282.08214 1402.1903 282.18526 1400.8359 282.25391 z M 983.50195 299.46289 C 982.11813 300.91265 980.76889 302.3944 979.49219 303.94141 C 980.7686 302.39476 982.11847 300.91234 983.50195 299.46289 z M 1512.0723 302.03516 C 1510.6884 303.48491 1509.3392 304.96667 1508.0625 306.51367 C 1509.3389 304.96702 1510.6888 303.4846 1512.0723 302.03516 z M 968.74219 320.72461 C 967.57858 323.1395 966.52893 325.62009 965.59961 328.1582 C 966.52893 325.62009 967.57858 323.1395 968.74219 320.72461 z M 1497.3125 323.29688 C 1496.1489 325.71176 1495.0992 328.19236 1494.1699 330.73047 C 1495.0992 328.19236 1496.1489 325.71176 1497.3125 323.29688 z M 963.60156 334.38477 C 963.31082 335.42948 963.03946 336.48206 962.78906 337.54297 C 963.03944 336.48205 963.31083 335.4295 963.60156 334.38477 z M 1492.1719 336.95703 C 1491.8811 338.00175 1491.6098 339.05432 1491.3594 340.11523 C 1491.6098 339.05431 1491.8811 338.00176 1492.1719 336.95703 z M 962.18164 340.33789 C 961.96015 341.44737 961.76068 342.56447 961.58398 343.68945 C 961.76066 342.56446 961.96017 341.44737 962.18164 340.33789 z M 1490.752 342.91016 C 1490.3733 344.80706 1490.0553 346.72478 1489.8086 348.66602 C 1490.0553 346.72545 1490.3734 344.80642 1490.752 342.91016 z M 960.98438 348.3457 C 960.85136 349.68274 960.74837 351.02784 960.67969 352.38281 C 960.74834 351.02844 960.85145 349.68215 960.98438 348.3457 z M 1489.5547 350.91797 C 1489.4217 352.255 1489.3187 353.6001 1489.25 354.95508 C 1489.3186 353.60071 1489.4218 352.25441 1489.5547 350.91797 z M 1242.4395 356.04883 C 1241.3018 357.22588 1240.1805 358.42232 1239.084 359.65625 C 1240.1802 358.42267 1241.3022 357.22556 1242.4395 356.04883 z M 960.67969 360.91211 C 960.75127 362.32435 960.85857 363.72643 961 365.11914 C 960.85863 363.72707 960.75127 362.32369 960.67969 360.91211 z M 1489.25 363.48438 C 1489.3216 364.89661 1489.4289 366.29869 1489.5703 367.69141 C 1489.4289 366.29933 1489.3216 364.89596 1489.25 363.48438 z M 961.52734 369.26562 C 961.73689 370.63708 961.97993 371.99725 962.25586 373.3457 C 961.97993 371.99725 961.73689 370.63708 961.52734 369.26562 z M 1490.0977 371.83789 C 1490.3072 373.20934 1490.5502 374.56951 1490.8262 375.91797 C 1490.5502 374.56951 1490.3072 373.20934 1490.0977 371.83789 z M 962.69336 375.35938 C 963.00183 376.69568 963.3426 378.01937 963.71484 379.33008 C 963.3426 378.01937 963.00183 376.69568 962.69336 375.35938 z M 1226.8477 375.54883 C 1225.5717 377.43056 1224.3205 379.34625 1223.0898 381.29102 C 1224.3205 379.34625 1225.5717 377.43056 1226.8477 375.54883 z M 1491.2637 377.93164 C 1491.5721 379.26795 1491.9129 380.59164 1492.2852 381.90234 C 1491.9129 380.59164 1491.5721 379.26795 1491.2637 377.93164 z M 965.59961 385.13672 C 966.52872 387.67427 967.57889 390.15398 968.74219 392.56836 C 967.57884 390.15401 966.52878 387.67423 965.59961 385.13672 z M 1494.1699 387.70898 C 1495.099 390.24653 1496.1492 392.72624 1497.3125 395.14062 C 1496.1492 392.72628 1495.0991 390.2465 1494.1699 387.70898 z M 970.57227 396.14258 C 971.84755 398.49017 973.234 400.76905 974.72266 402.97266 C 973.23396 400.7691 971.84759 398.49012 970.57227 396.14258 z M 1499.1426 398.71484 C 1500.4179 401.06243 1501.8043 403.34132 1503.293 405.54492 C 1501.8043 403.34136 1500.4179 401.06239 1499.1426 398.71484 z M 979.49219 409.35156 C 981.18077 411.39766 982.96556 413.36205 984.83984 415.23633 C 982.96556 413.36205 981.18077 411.39766 979.49219 409.35156 z M 984.83984 415.23633 C 986.71412 417.11061 988.67852 418.8954 990.72461 420.58398 C 988.67851 418.8954 986.71413 417.11061 984.83984 415.23633 z M 990.72461 420.58398 C 992.7707 422.27257 994.89949 423.86451 997.10352 425.35352 C 994.89949 423.86451 992.77071 422.27257 990.72461 420.58398 z M 997.10352 425.35352 C 999.30754 426.84252 1001.5855 428.22836 1003.9336 429.50391 C 1001.586 428.22858 999.30708 426.84221 997.10352 425.35352 z M 1508.0625 411.92383 C 1509.7511 413.96992 1511.5359 415.93431 1513.4102 417.80859 C 1511.5359 415.93431 1509.7511 413.96992 1508.0625 411.92383 z M 1513.4102 417.80859 C 1515.2844 419.68288 1517.2488 421.46766 1519.2949 423.15625 C 1517.2488 421.46766 1515.2844 419.68288 1513.4102 417.80859 z M 1519.2949 423.15625 C 1521.341 424.84484 1523.4698 426.43677 1525.6738 427.92578 C 1523.4698 426.43677 1521.341 424.84484 1519.2949 423.15625 z M 1525.6738 427.92578 C 1527.8779 429.41479 1530.1558 430.80063 1532.5039 432.07617 C 1530.1564 430.80085 1527.8774 429.41447 1525.6738 427.92578 z M 1100.6133 416.57422 C 1099.1638 417.9577 1097.6814 419.30758 1096.1348 420.58398 C 1097.6818 419.30728 1099.1635 417.95804 1100.6133 416.57422 z M 1096.1348 420.58398 C 1094.0887 422.27257 1091.9599 423.86451 1089.7559 425.35352 C 1091.9599 423.86451 1094.0887 422.27257 1096.1348 420.58398 z M 1089.7559 425.35352 C 1087.5518 426.84252 1085.2719 428.22836 1082.9238 429.50391 C 1085.2719 428.22836 1087.5518 426.84252 1089.7559 425.35352 z M 1629.1836 419.14648 C 1627.7341 420.52997 1626.2517 421.87984 1624.7051 423.15625 C 1626.2521 421.87955 1627.7338 420.53031 1629.1836 419.14648 z M 1624.7051 423.15625 C 1622.659 424.84484 1620.5302 426.43677 1618.3262 427.92578 C 1620.5302 426.43677 1622.659 424.84484 1624.7051 423.15625 z M 1618.3262 427.92578 C 1616.1221 429.41479 1613.8422 430.80063 1611.4941 432.07617 C 1613.8422 430.80063 1616.1221 429.41479 1618.3262 427.92578 z M 1007.5078 431.33398 C 1009.9227 432.49759 1012.4013 433.54724 1014.9395 434.47656 C 1012.4019 433.54739 1009.9222 432.49733 1007.5078 431.33398 z M 1079.3516 431.33398 C 1076.9367 432.49759 1074.4561 433.54724 1071.918 434.47656 C 1074.4561 433.54724 1076.9367 432.49759 1079.3516 431.33398 z M 1536.0781 433.90625 C 1538.493 435.06986 1540.9717 436.11951 1543.5098 437.04883 C 1540.9723 436.11966 1538.4925 435.0696 1536.0781 433.90625 z M 1607.9219 433.90625 C 1605.507 435.06986 1603.0264 436.11951 1600.4883 437.04883 C 1603.0264 436.11951 1605.507 435.06986 1607.9219 433.90625 z M 1020.7461 436.36133 C 1022.0568 436.73358 1023.3805 437.07434 1024.7168 437.38281 C 1023.3805 437.07434 1022.0568 436.73358 1020.7461 436.36133 z M 1024.7168 437.38281 C 1028.0576 438.15399 1031.4752 438.72259 1034.957 439.07617 C 1031.4752 438.72259 1028.0576 438.15399 1024.7168 437.38281 z M 1034.957 439.07617 C 1036.3497 439.21761 1037.7538 439.3249 1039.166 439.39648 C 1037.7538 439.3249 1036.3497 439.21761 1034.957 439.07617 z M 1039.166 439.39648 C 1040.5783 439.46807 1041.9997 439.50391 1043.4297 439.50391 C 1041.9997 439.50391 1040.5783 439.46807 1039.166 439.39648 z M 1043.4297 439.50391 C 1044.8597 439.50391 1046.2811 439.46807 1047.6934 439.39648 C 1046.2811 439.46807 1044.8597 439.50391 1043.4297 439.50391 z M 1047.6934 439.39648 C 1049.0483 439.32781 1050.3934 439.22481 1051.7305 439.0918 C 1050.394 439.22472 1049.0477 439.32784 1047.6934 439.39648 z M 1066.1133 436.36133 C 1064.931 436.69712 1063.7364 437.00315 1062.5332 437.28711 C 1063.7359 437.00325 1064.9315 436.69697 1066.1133 436.36133 z M 1192.418 437.41211 C 1189.4426 442.87506 1186.3843 448.22685 1183.2051 453.41602 C 1186.3845 448.22648 1189.4424 442.87549 1192.418 437.41211 z M 1061.7031 437.47852 C 1058.5702 438.18372 1055.3714 438.71357 1052.1152 439.05273 C 1055.3714 438.71349 1058.5702 438.18381 1061.7031 437.47852 z M 1549.3164 438.93359 C 1550.6271 439.30584 1551.9508 439.64661 1553.2871 439.95508 C 1551.9508 439.64661 1550.6271 439.30584 1549.3164 438.93359 z M 1553.2871 439.95508 C 1556.6279 440.72625 1560.0456 441.29485 1563.5273 441.64844 C 1560.0456 441.29485 1556.6279 440.72625 1553.2871 439.95508 z M 1563.5273 441.64844 C 1564.9201 441.78987 1566.3241 441.89717 1567.7363 441.96875 C 1566.3241 441.89717 1564.9201 441.78987 1563.5273 441.64844 z M 1567.7363 441.96875 C 1569.1486 442.04033 1570.57 442.07618 1572 442.07617 C 1570.57 442.07618 1569.1486 442.04033 1567.7363 441.96875 z M 1572 442.07617 C 1573.43 442.07618 1574.8514 442.04033 1576.2637 441.96875 C 1574.8514 442.04033 1573.43 442.07618 1572 442.07617 z M 1576.2637 441.96875 C 1577.6186 441.90007 1578.9637 441.79708 1580.3008 441.66406 C 1578.9643 441.79699 1577.618 441.9001 1576.2637 441.96875 z M 1594.6836 438.93359 C 1593.5013 439.26938 1592.3067 439.57541 1591.1035 439.85938 C 1592.3062 439.57551 1593.5018 439.26924 1594.6836 438.93359 z M 1590.2734 440.05078 C 1587.1406 440.75599 1583.9417 441.28583 1580.6855 441.625 C 1583.9417 441.28576 1587.1405 440.75608 1590.2734 440.05078 z M 1041.7422 565.68359 C 1040.7998 566.98166 1039.9019 568.32017 1039.0293 569.68359 C 1039.9016 568.32053 1040.8001 566.98134 1041.7422 565.68359 z M 1033.5996 579.66016 C 1032.867 581.26904 1032.1693 582.90984 1031.5293 584.60547 C 1032.1691 582.91031 1032.8672 581.26861 1033.5996 579.66016 z M 1025.7148 615.78906 C 1025.7148 618.42722 1025.782 621.03017 1025.9141 623.59766 C 1025.782 621.03017 1025.7148 618.42722 1025.7148 615.78906 z M 1026.5039 631.19336 C 1026.8952 634.93681 1027.4294 638.60097 1028.1016 642.18164 C 1027.4292 638.60037 1026.8953 634.93746 1026.5039 631.19336 z M 1031.5137 656.06641 C 1032.2002 658.30592 1032.9451 660.50912 1033.7461 662.67383 C 1032.9449 660.50856 1032.2004 658.30651 1031.5137 656.06641 z M 1034.9902 665.89453 C 1035.8475 668.02209 1036.7597 670.11248 1037.7266 672.16406 C 1036.7597 670.11248 1035.8475 668.02209 1034.9902 665.89453 z M 1300.0898 669.69727 C 1298.6711 669.76377 1297.2805 669.90304 1295.9102 670.09961 C 1297.28 669.90318 1298.6717 669.76374 1300.0898 669.69727 z M 1306.9238 669.89844 C 1308.4153 670.05688 1309.8789 670.28882 1311.3164 670.58984 C 1309.8789 670.28882 1308.4153 670.05688 1306.9238 669.89844 z M 1295.3496 670.18555 C 1294.0139 670.39484 1292.6973 670.65723 1291.4043 670.98242 C 1292.6978 670.65709 1294.0133 670.39488 1295.3496 670.18555 z M 1291.4043 670.98242 C 1289.5003 671.46129 1287.6442 672.06966 1285.8242 672.7793 C 1287.6437 672.0699 1289.5008 671.46117 1291.4043 670.98242 z M 1313.4531 671.0918 C 1314.8653 671.46043 1316.2527 671.89613 1317.6172 672.39258 C 1316.2527 671.89613 1314.8653 671.46043 1313.4531 671.0918 z M 1317.6172 672.39258 C 1318.9817 672.88903 1320.3236 673.44612 1321.6445 674.06055 C 1320.3236 673.44612 1318.9817 672.88903 1317.6172 672.39258 z M 1321.6445 674.06055 C 1323.626 674.98219 1325.5597 676.03199 1327.4551 677.19141 C 1325.5602 676.03234 1323.6255 674.98196 1321.6445 674.06055 z M 1039.2168 675.21289 C 1040.2373 677.22619 1041.3121 679.20054 1042.4375 681.13672 C 1041.3124 679.20103 1040.2371 677.22566 1039.2168 675.21289 z M 1334.8438 682.37891 C 1336.0454 683.32875 1337.2331 684.31827 1338.4102 685.3418 C 1337.2331 684.31827 1336.0454 683.32875 1334.8438 682.37891 z M 1269.4082 682.53711 C 1268.4829 683.27011 1267.5615 684.01846 1266.6504 684.79492 C 1267.5619 684.01816 1268.4826 683.27038 1269.4082 682.53711 z M 1261.5 689.47656 C 1260.9146 690.03388 1260.3256 690.57772 1259.7441 691.14844 C 1260.3256 690.57772 1260.9146 690.03387 1261.5 689.47656 z M 1047.8438 689.58789 C 1049.1204 691.40696 1050.4468 693.18573 1051.8203 694.92578 C 1050.4472 693.18614 1049.1201 691.40651 1047.8438 689.58789 z M 1060.6191 704.88672 C 1062.1767 706.46644 1063.779 708.00548 1065.4238 709.50391 C 1063.779 708.00548 1062.1767 706.46644 1060.6191 704.88672 z M 1543.918 708.04883 C 1543.1125 708.84414 1542.295 709.62817 1541.4668 710.40234 C 1542.295 709.62816 1543.1125 708.84415 1543.918 708.04883 z M 1362.1855 710.20117 C 1364.428 712.72822 1366.6848 715.25505 1368.9707 717.74219 C 1366.6845 715.25471 1364.4283 712.72858 1362.1855 710.20117 z M 1067.9238 711.7207 C 1071.2983 714.63568 1074.8393 717.38702 1078.5371 719.9707 C 1074.8397 717.38728 1071.2979 714.63533 1067.9238 711.7207 z M 1537.791 713.7207 C 1534.4165 716.63568 1530.8736 719.38702 1527.1758 721.9707 C 1530.8736 719.38702 1534.4165 716.63568 1537.791 713.7207 z M 1081.3398 721.87695 C 1083.2272 723.12691 1085.1535 724.33439 1087.1152 725.5 C 1085.1535 724.33439 1083.2272 723.12691 1081.3398 721.87695 z M 1375.9355 725.04688 C 1377.1174 726.23162 1378.3102 727.39682 1379.5176 728.53711 C 1378.3105 727.39714 1377.1171 726.23128 1375.9355 725.04688 z M 1379.5176 728.53711 C 1381.9317 730.81704 1384.4021 732.99788 1386.9434 735.04102 C 1384.4021 732.99788 1381.9317 730.81704 1379.5176 728.53711 z M 1224.0039 728.55664 C 1222.7579 729.67783 1221.5069 730.79124 1220.2285 731.85156 C 1221.5072 730.79094 1222.7576 729.67815 1224.0039 728.55664 z M 1093.1074 728.86914 C 1095.1404 729.94965 1097.2075 730.98777 1099.3086 731.98242 C 1097.2081 730.988 1095.1399 729.94938 1093.1074 728.86914 z M 1511.5586 731.41016 C 1509.8623 732.2944 1508.1472 733.15731 1506.4043 733.98242 C 1508.1477 733.1571 1509.8619 732.29463 1511.5586 731.41016 z M 1506.4043 733.98242 C 1503.2527 735.47439 1500.0261 736.86937 1496.7305 738.16602 C 1500.0261 736.86937 1503.2527 735.47439 1506.4043 733.98242 z M 1099.3105 731.98242 C 1102.4616 733.47411 1105.6873 734.86959 1108.9824 736.16602 C 1105.6873 734.86956 1102.4616 733.47414 1099.3105 731.98242 z M 1388.8633 736.54688 C 1390.152 737.53235 1391.4602 738.48203 1392.7891 739.38867 C 1391.4598 738.48174 1390.1524 737.53269 1388.8633 736.54688 z M 1112.3027 737.42969 C 1114.5297 738.2501 1116.7869 739.02745 1119.0723 739.75977 C 1116.7863 739.02727 1114.5303 738.25033 1112.3027 737.42969 z M 1119.0723 739.75977 C 1121.3582 740.49226 1123.6725 741.18062 1126.0137 741.82422 C 1123.6731 741.18077 1121.3576 740.49208 1119.0723 739.75977 z M 1210.5527 738.93359 C 1208.5433 740.20207 1206.4859 741.37302 1204.373 742.42969 C 1206.4859 741.37302 1208.5433 740.20207 1210.5527 738.93359 z M 1493.4121 739.42969 C 1491.4619 740.14817 1489.4854 740.8256 1487.4902 741.47656 C 1489.4849 740.82575 1491.4624 740.148 1493.4121 739.42969 z M 1485.8281 742.01172 C 1483.8061 742.64854 1481.7641 743.25658 1479.6992 743.82422 C 1481.7646 743.25645 1483.8056 742.64872 1485.8281 742.01172 z M 1129.5469 742.75586 C 1131.9139 743.35454 1134.3072 743.90928 1136.7246 744.41797 C 1134.3072 743.90926 1131.9139 743.35457 1129.5469 742.75586 z M 1398.9199 743.16992 C 1400.3172 743.94007 1401.7396 744.66147 1403.1875 745.32812 C 1401.7396 744.66147 1400.3172 743.94007 1398.9199 743.16992 z M 1403.1875 745.32812 C 1404.6354 745.99478 1406.1087 746.60683 1407.6113 747.16016 C 1406.1087 746.60683 1404.6354 745.99478 1403.1875 745.32812 z M 1476.168 744.75586 C 1473.8004 745.35472 1471.4063 745.90915 1468.9883 746.41797 C 1471.4063 745.90915 1473.8004 745.35472 1476.168 744.75586 z M 1140.3711 745.14648 C 1142.8131 745.61 1145.278 746.02806 1147.7656 746.40039 C 1145.278 746.02806 1142.8131 745.61 1140.3711 745.14648 z M 1147.7656 746.40039 C 1151.4971 746.95888 1155.2784 747.41443 1159.1035 747.76562 C 1155.2784 747.41443 1151.4971 746.95888 1147.7656 746.40039 z M 1197.8613 745.24023 C 1195.8164 745.98506 1193.7168 746.61209 1191.5625 747.125 C 1193.7162 746.61217 1195.817 745.98483 1197.8613 745.24023 z M 1465.3438 747.14648 C 1463.0962 747.57308 1460.8273 747.95725 1458.541 748.30664 C 1460.8267 747.95733 1463.0968 747.57296 1465.3438 747.14648 z M 1188.5957 747.75586 C 1185.3861 748.33646 1182.0506 748.64562 1178.5723 748.64648 C 1182.0506 748.64562 1185.3861 748.33646 1188.5957 747.75586 z M 1409.8887 747.94531 C 1411.4197 748.43804 1412.9802 748.86965 1414.5723 749.23438 C 1412.9796 748.86951 1411.4203 748.43827 1409.8887 747.94531 z M 1414.5723 749.23438 C 1416.1649 749.59924 1417.7894 749.89808 1419.4473 750.125 C 1417.7894 749.89808 1416.1649 749.59924 1414.5723 749.23438 z M 1419.4473 750.125 C 1421.1052 750.35192 1422.7961 750.50681 1424.5234 750.58594 C 1422.7968 750.50678 1421.1045 750.35183 1419.4473 750.125 z M 1162.9434 748.08203 C 1165.5127 748.26971 1168.0997 748.41164 1170.7051 748.50586 C 1168.1004 748.41164 1165.512 748.26967 1162.9434 748.08203 z M 1457.4883 748.46484 C 1453.9059 748.99234 1450.2797 749.42883 1446.6113 749.76562 C 1450.2803 749.42878 1453.9053 748.99245 1457.4883 748.46484 z M 1442.7715 750.08203 C 1440.2022 750.26971 1437.6131 750.41164 1435.0078 750.50586 C 1437.6131 750.41164 1440.2022 750.26971 1442.7715 750.08203 z "
       id="rect4178" />
    <path
       sodipodi:nodetypes="sssssssssssssssssssssaccaccas"
       inkscape:connector-curvature="0"
       id="path4189"
       d="m 257.1434,162.3616 c -45.76095,-1.5e-4 -82.85757,37.09647 -82.85742,82.85742 -1.5e-4,45.76096 37.09647,82.85758 82.85742,82.85743 45.76096,1.6e-4 82.85758,-37.09646 82.85743,-82.85743 1.5e-4,-45.76096 -37.09647,-82.85758 -82.85743,-82.85742 z m 185.14258,0 c -45.76095,-1.5e-4 -82.85757,37.09647 -82.85742,82.85742 -1.5e-4,45.76096 37.09647,82.85758 82.85742,82.85743 45.76095,1.5e-4 82.85757,-37.09647 82.85742,-82.85743 1.5e-4,-45.76095 -37.09647,-82.85757 -82.85742,-82.85742 z M 89.143403,319.50419 c -45.76096,-1.5e-4 -82.8575601,37.09647 -82.8573601,82.85742 -2e-4,45.76095 37.0964001,82.85757 82.8573601,82.85742 45.760957,1.6e-4 82.857577,-37.09646 82.857427,-82.85742 1.5e-4,-45.76096 -37.09647,-82.85758 -82.857427,-82.85742 z m 528.570317,2.57226 c -45.76096,-1.6e-4 -82.85759,37.09647 -82.85743,82.85743 -1.5e-4,45.76096 37.09647,82.85758 82.85743,82.85742 45.76095,1.5e-4 82.85757,-37.09647 82.85742,-82.85742 1.6e-4,-45.76096 -37.09646,-82.85758 -82.85742,-82.85743 z M 350.00083,375.21903 C 265.57994,375.21888 255.82948,478.14247 207.1434,528.07645 162.85586,573.49916 73.919943,577.0085 71.428543,661.50419 c -1e-4,84.42088 68.436557,132.85757 152.857437,132.85742 55.65264,-0.0138 74.8414,-79.18796 123.79102,-78.99805 49.58743,0.19239 68.34543,80.94859 124.77929,80.99805 84.42089,1.5e-4 152.85758,-48.43653 152.85743,-132.85742 C 638.54933,561.53437 536.59196,573.75223 492.85629,528.07645 444.62402,477.7046 434.42095,375.21996 350.00083,375.21903 Z"
       style="opacity:1;fill:#f9f9f9;fill-opacity:1;fill-rule:nonzero;stroke:#999999;stroke-width:3.5;stroke-linecap:round;stroke-linejoin:round;stroke-miterlimit:4;stroke-dasharray:none;stroke-dashoffset:0;stroke-opacity:1" />
  </g>
</svg>
